# xmcd
#
# Track frame offsets:
# 150
# 16387
# 30082
# 47450
# 64202
# 82945
# 94057
# 103727
# 123860
# 141912
# 156440
# 174432
# 187302
# 197530
# 219822
# 235362
# 252100
# 267942
# 285240
# 314672
#
# Disc length: 4350 seconds
#
#
# Revision: 18
# Processed by: cddbd v1.5.2PL0 Copyright (c) Steve Scherf et al.
# Submitted via: FreeRIP 2.951 
#
DISCID=0f10fc14
DTITLE=Mega Beat Box - 1997 - CD9
DYEAR=1997
DGENRE=
TTITLE0=Leo Sayer - You Make Me Feel Like Dancing - 1976
TTITLE1=Brotherhood Of Man - Save Your Kisses For Me - 1976
TTITLE2=Suzi Quatro - If You Can't Give Me Love - 1978
TTITLE3=Santabarbara - Charly - 1973
TTITLE4=Little River Band - It's A Long Way There - 1976
TTITLE5=Peter and Gordon - Nobody I Know - 1964
TTITLE6=Piglets - Johnny Reggae - 1971
TTITLE7=Anita Ward - Ring My Bell - 1979
TTITLE8=Mud - The Cat Crept In - 1974
TTITLE9=Harpo - Horoscope - 1976
TTITLE10=Hot Cocolate - Every 1's A Winner - 1978
TTITLE11=Jim Gilstrap - Swing Your Daddy - 1975
TTITLE12=Blondie - Denis - 1977
TTITLE13=Wizzard - See My Baby Jive - 1973
TTITLE14=Stranglers - No More Heroes - 1977
TTITLE15=Peter Tosh - Don't Look Back (You've Gotta Walk) - 1979
TTITLE16=Mink Deville - Spanish Stroll - 1977
TTITLE17=Scott Fitzgerald and Yvonne Keeley - If I Had Words - 1978
TTITLE18=Tavares - Heaven Must Be Missing An Angel - 1976
TTITLE19=Jonathan Richman and The Modern Lovers - Egyptian Reggae
EXTD=
EXTT0=
EXTT1=
EXTT2=
EXTT3=
EXTT4=
EXTT5=
EXTT6=
EXTT7=
EXTT8=
EXTT9=
EXTT10=1978
EXTT11=
EXTT12=
EXTT13=
EXTT14=
EXTT15=
EXTT16=
EXTT17=
EXTT18=
EXTT19=
PLAYORDER=
